<?xml version="1.0" encoding="UTF-8" standalone="no"?>
<svg
    xmlns="http://www.w3.org/2000/svg"
    viewBox="0 0 60 60"
    width="170"
    height="170"
    version="1.0">

  <g transform="translate(-2,0) scale(0.9) translate(3,3)">
    <path
        fill="#4d4d4d"
        d="m14.23 29.973c0-2.95 0.455-5.695 1.367-8.234 0.93-2.557 2.244-4.747 3.943-6.571 1.699-1.841 3.746-3.263 6.142-4.264 2.414-1.0194 5.06-1.529 7.939-1.529 3.2 0 5.963 0.5007 8.287 1.502 2.343 1.001 3.514 2.584 3.514 4.747 0 1.127-0.367 2.128-1.1 3.004-0.715 0.858-1.627 1.287-2.736 1.287-0.554 0-1.457-0.232-2.708-0.697-1.234-0.465-2.137-0.787-2.709-0.965-0.572-0.179-1.35-0.269-2.334-0.269-2.27 0-4.166 0.555-5.686 1.663-1.502 1.091-2.61 2.557-3.325 4.399-0.698 1.842-1.046 3.817-1.046 5.927 0 3.308 0.813 6.088 2.44 8.341 1.627 2.235 3.907 3.353 6.84 3.353 1.555 0 2.78-0.116 3.674-0.349 0.894-0.232 1.824-0.545 2.789-0.938 0.966-0.394 1.726-0.59 2.28-0.59 1.073 0 1.904 0.25 2.494 0.75 0.59 0.483 0.984 1.046 1.18 1.69 0.197 0.644 0.295 1.225 0.295 1.744 0 1.519-0.643 2.78-1.931 3.781-1.287 1.001-2.887 1.726-4.8 2.173-1.914 0.465-3.773 0.697-5.579 0.697-3.987 0-7.438-0.912-10.353-2.736-2.896-1.841-5.105-4.327-6.625-7.456-1.502-3.147-2.252-6.633-2.252-10.46z"/>
  </g>

</svg>